<?xml version="1.0" standalone="no"?>
<!DOCTYPE svg PUBLIC "-//W3C//DTD SVG 20010904//EN"
 "http://www.w3.org/TR/2001/REC-SVG-20010904/DTD/svg10.dtd">
<svg version="1.0" xmlns="http://www.w3.org/2000/svg"
 width="626.000000pt" height="626.000000pt" viewBox="0 0 626.000000 626.000000"
 preserveAspectRatio="xMidYMid meet">

<g transform="translate(0.000000,626.000000) scale(0.100000,-0.100000)"
fill="#000000" stroke="none">
<path d="M2870 4955 c-119 -19 -279 -61 -380 -99 -378 -146 -679 -392 -913
-746 -75 -114 -170 -294 -160 -304 4 -3 25 -6 47 -6 l41 0 42 83 c98 191 225
359 386 513 133 127 260 217 417 298 480 244 1065 247 1545 9 314 -157 581
-413 755 -723 30 -52 55 -97 57 -99 2 -2 21 2 44 9 50 17 50 18 -31 159 -286
499 -766 826 -1333 906 -126 18 -401 18 -517 0z"/>
<path d="M3810 4439 c-379 -48 -815 -262 -1148 -563 l-73 -66 227 0 227 0 76
73 c209 198 484 355 766 436 87 25 226 51 271 51 l35 0 -33 29 c-18 15 -43 33
-55 40 -25 13 -193 13 -293 0z"/>
<path d="M5250 3958 c-230 -215 -659 -540 -1015 -768 -749 -481 -1392 -820
-2069 -1091 -377 -151 -933 -323 -1281 -395 l-160 -33 100 5 c794 42 1359 172
2035 469 283 125 663 329 870 468 191 129 629 451 760 560 184 153 401 366
641 630 188 204 226 255 119 155z"/>
<path d="M5075 3936 c-33 -18 -233 -126 -445 -239 -702 -375 -1139 -593 -1465
-732 -294 -125 -234 -115 -695 -115 l-400 0 -2 398 -3 397 -315 0 c-332 0
-410 -7 -502 -47 -64 -27 -100 -70 -194 -228 -72 -122 -89 -142 -201 -247 -72
-69 -126 -127 -132 -145 -15 -43 -14 -132 2 -171 19 -43 84 -101 138 -120 24
-9 72 -18 106 -20 l62 -3 16 43 c24 62 57 97 117 123 115 49 254 -15 283 -132
7 -28 7 -28 96 -28 73 0 89 3 89 15 0 29 40 94 72 118 97 72 223 59 296 -29
18 -21 35 -53 38 -71 l6 -33 188 0 c177 0 189 1 195 19 10 32 81 89 127 101
82 23 152 -2 217 -76 l41 -47 70 6 c114 10 341 116 835 392 468 261 744 430
1090 668 176 121 324 224 330 228 17 16 1 9 -60 -25z m-3451 -378 c25 -35 23
-287 -1 -317 -22 -26 -32 -26 -346 -23 l-228 2 7 23 c4 12 35 82 70 154 49
105 68 135 89 143 31 12 247 37 332 39 53 1 64 -2 77 -21z m-664 -628 c14 -22
12 -56 -4 -69 -9 -8 -50 -11 -117 -9 l-104 3 -3 27 c-2 15 2 37 8 48 11 20 18
22 111 18 75 -2 102 -7 109 -18z"/>
<path d="M4181 2762 l-124 -97 594 -3 c391 -1 612 1 645 8 37 8 88 35 179 95
70 46 129 86 133 89 3 3 -289 6 -649 6 l-654 0 -124 -98z"/>
<path d="M1200 2788 c-19 -5 -50 -24 -68 -41 -136 -131 45 -337 205 -232 63
42 83 142 41 205 -44 64 -107 88 -178 68z"/>
<path d="M1788 2790 c-131 -39 -149 -214 -29 -284 99 -57 231 18 231 132 0
109 -99 183 -202 152z"/>
<path d="M2533 2725 c-37 -16 -68 -61 -78 -112 -8 -43 28 -121 65 -142 24 -13
34 -10 133 34 l107 48 0 42 c0 107 -121 176 -227 130z"/>
<path d="M2860 2623 c-40 -5 -61 -20 -39 -28 9 -3 35 3 60 14 44 20 42 21 -21
14z"/>
<path d="M4389 2498 c-41 -82 -141 -218 -226 -308 -244 -259 -537 -422 -900
-500 -139 -31 -452 -39 -614 -16 -127 18 -277 54 -374 90 l-62 24 -109 -28
c-60 -15 -121 -30 -137 -34 l-27 -6 32 -29 c61 -53 223 -153 343 -212 284
-139 564 -198 880 -186 639 25 1193 356 1523 911 58 97 151 296 152 324 0 9
-53 12 -230 12 l-230 0 -21 -42z"/>
<path d="M1416 2496 l-18 -34 39 -83 c44 -93 110 -204 155 -261 l29 -37 42 16
c23 9 43 17 45 19 2 1 -24 39 -58 84 -33 46 -88 138 -122 206 -40 80 -67 124
-78 124 -8 0 -24 -15 -34 -34z"/>
</g>
</svg>
